<svg xmlns="http://www.w3.org/2000/svg" xmlns:xlink="http://www.w3.org/1999/xlink" contentStyleType="text/css" data-diagram-type="ACTIVITY" height="888px" preserveAspectRatio="none" style="width:648px;height:888px;background:#FFFFFF;" version="1.1" viewBox="0 0 648 888" width="648px" zoomAndPan="magnify"><?plantuml 1.2026.3?><defs/><g><g class="title" data-source-line="2"><rect fill="none" height="24" style="stroke:#000000;stroke-width:1;" width="318" x="164.4639" y="15"/><text fill="#000000" font-family="Helvetica" font-size="14" font-weight="700" lengthAdjust="spacing" textLength="308" x="169.4639" y="30.7803">Option Desk - The optional LangGraph routine</text></g><ellipse cx="308.4006" cy="60" fill="#222222" rx="10" ry="10" style="stroke:#222222;stroke-width:1;"/><rect fill="#F1F1F1" height="31" rx="12.5" ry="12.5" style="stroke:#181818;stroke-width:0.5;" width="232.1528" x="192.3242" y="90"/><text fill="#000000" font-family="Helvetica" font-size="11" lengthAdjust="spacing" textLength="212.1528" x="202.3242" y="108.4702">Plan from artifacts for underlying and expiry</text><rect fill="#F1F1F1" height="42" rx="12.5" ry="12.5" style="stroke:#181818;stroke-width:0.5;" width="199.7598" x="208.5208" y="194.2002"/><text fill="#000000" font-family="Helvetica" font-size="11" lengthAdjust="spacing" textLength="83.7783" x="218.5208" y="212.6704">Run next handler</text><text fill="#000000" font-family="Helvetica" font-size="11" lengthAdjust="spacing" textLength="179.7598" x="218.5208" y="223.6704">chain, greeks, exposure, comparison</text><rect fill="#F1F1F1" height="31" rx="12.5" ry="12.5" style="stroke:#181818;stroke-width:0.5;" width="192.4229" x="212.1892" y="256.2002"/><text fill="#000000" font-family="Helvetica" font-size="11" lengthAdjust="spacing" textLength="172.4229" x="222.1892" y="274.6704">Check expected artifact in the store</text><polygon fill="#F1F1F1" points="226.7815,311.2002,390.0198,311.2002,402.0198,323.2002,390.0198,335.2002,226.7815,335.2002,214.7815,323.2002,226.7815,311.2002" style="stroke:#181818;stroke-width:0.5;"/><text fill="#000000" font-family="Helvetica" font-size="11" lengthAdjust="spacing" textLength="163.2383" x="226.7815" y="326.1704">Handler failed or artifact missing?</text><text fill="#000000" font-family="Helvetica" font-size="10" lengthAdjust="spacing" textLength="15.5615" x="199.22" y="320.9004">yes</text><text fill="#000000" font-family="Helvetica" font-size="10" lengthAdjust="spacing" textLength="11.123" x="402.0198" y="320.9004">no</text><rect fill="#F1F1F1" height="31" rx="12.5" ry="12.5" style="stroke:#181818;stroke-width:0.5;" width="88.4761" x="160.5435" y="345.2002"/><text fill="#000000" font-family="Helvetica" font-size="11" lengthAdjust="spacing" textLength="68.4761" x="170.5435" y="363.6704">Record failure</text><rect fill="#F1F1F1" height="31" rx="12.5" ry="12.5" style="stroke:#181818;stroke-width:0.5;" width="213.2412" x="305.3992" y="345.2002"/><text fill="#000000" font-family="Helvetica" font-size="11" lengthAdjust="spacing" textLength="193.2412" x="315.3992" y="363.6704">Update progress and consumed budget</text><polygon fill="#F1F1F1" points="308.4006,382.2002,320.4006,394.2002,308.4006,406.2002,296.4006,394.2002,308.4006,382.2002" style="stroke:#181818;stroke-width:0.5;"/><polygon fill="#F1F1F1" points="190.0889,141,426.7124,141,438.7124,153,426.7124,165,190.0889,165,178.0889,153,190.0889,141" style="stroke:#181818;stroke-width:0.5;"/><text fill="#000000" font-family="Helvetica" font-size="10" lengthAdjust="spacing" textLength="15.5615" x="312.4006" y="172.7002">yes</text><text fill="#000000" font-family="Helvetica" font-size="11" lengthAdjust="spacing" textLength="236.6235" x="190.0889" y="155.9702">Missing artifacts, no failure and budget remains?</text><text fill="#000000" font-family="Helvetica" font-size="10" lengthAdjust="spacing" textLength="11.123" x="166.9658" y="150.7002">no</text><polygon fill="#F1F1F1" points="118.2874,448.2002,204.4988,448.2002,216.4988,460.2002,204.4988,472.2002,118.2874,472.2002,106.2874,460.2002,118.2874,448.2002" style="stroke:#181818;stroke-width:0.5;"/><text fill="#000000" font-family="Helvetica" font-size="10" lengthAdjust="spacing" textLength="15.5615" x="165.3931" y="479.9004">yes</text><text fill="#000000" font-family="Helvetica" font-size="11" lengthAdjust="spacing" textLength="86.2114" x="118.2874" y="463.1704">Failure recorded?</text><rect fill="#F1F1F1" height="31" rx="12.5" ry="12.5" style="stroke:#181818;stroke-width:0.5;" width="103.4614" x="109.6624" y="502.2002"/><text fill="#000000" font-family="Helvetica" font-size="11" lengthAdjust="spacing" textLength="83.4614" x="119.6624" y="520.6704">Outcome = failed</text><polygon fill="#F1F1F1" points="248.4988,448.2002,350.5872,448.2002,362.5872,460.2002,350.5872,472.2002,248.4988,472.2002,236.4988,460.2002,248.4988,448.2002" style="stroke:#181818;stroke-width:0.5;"/><text fill="#000000" font-family="Helvetica" font-size="10" lengthAdjust="spacing" textLength="15.5615" x="303.543" y="479.9004">yes</text><text fill="#000000" font-family="Helvetica" font-size="11" lengthAdjust="spacing" textLength="102.0884" x="248.4988" y="463.1704">No missing artifacts?</text><text fill="#000000" font-family="Helvetica" font-size="10" lengthAdjust="spacing" textLength="79.5117" x="362.5872" y="457.9004">budget exhausted</text><rect fill="#F1F1F1" height="31" rx="12.5" ry="12.5" style="stroke:#181818;stroke-width:0.5;" width="121.7983" x="238.6438" y="502.2002"/><text fill="#000000" font-family="Helvetica" font-size="11" lengthAdjust="spacing" textLength="101.7983" x="248.6438" y="520.6704">Outcome = complete</text><rect fill="#F1F1F1" height="31" rx="12.5" ry="12.5" style="stroke:#181818;stroke-width:0.5;" width="127.9268" x="382.5872" y="500.2002"/><text fill="#000000" font-family="Helvetica" font-size="11" lengthAdjust="spacing" textLength="107.9268" x="392.5872" y="518.6704">Outcome = exhausted</text><rect fill="#F1F1F1" height="42" rx="12.5" ry="12.5" style="stroke:#181818;stroke-width:0.5;" width="138.6421" x="239.0796" y="573.2002"/><text fill="#000000" font-family="Helvetica" font-size="11" lengthAdjust="spacing" textLength="110.0537" x="249.0796" y="591.6704">Re-read report context</text><text fill="#000000" font-family="Helvetica" font-size="11" lengthAdjust="spacing" textLength="118.6421" x="249.0796" y="602.6704">and surface degradation</text><rect fill="#F1F1F1" height="31" rx="12.5" ry="12.5" style="stroke:#181818;stroke-width:0.5;" width="153.2568" x="231.7722" y="683.2002"/><text fill="#000000" font-family="Helvetica" font-size="11" lengthAdjust="spacing" textLength="133.2568" x="241.7722" y="701.6704">Model writes final summary</text><polygon fill="#F1F1F1" points="227.7,635.2002,389.1013,635.2002,401.1013,647.2002,389.1013,659.2002,227.7,659.2002,215.7,647.2002,227.7,635.2002" style="stroke:#181818;stroke-width:0.5;"/><text fill="#000000" font-family="Helvetica" font-size="10" lengthAdjust="spacing" textLength="15.5615" x="312.4006" y="666.9004">yes</text><text fill="#000000" font-family="Helvetica" font-size="11" lengthAdjust="spacing" textLength="161.4014" x="227.7" y="650.1704">A summary model was supplied?</text><polygon fill="#F1F1F1" points="308.4006,734.2002,320.4006,746.2002,308.4006,758.2002,296.4006,746.2002,308.4006,734.2002" style="stroke:#181818;stroke-width:0.5;"/><rect fill="#F1F1F1" height="31" rx="12.5" ry="12.5" style="stroke:#181818;stroke-width:0.5;" width="209.5244" x="203.6384" y="778.2002"/><text fill="#000000" font-family="Helvetica" font-size="11" lengthAdjust="spacing" textLength="189.5244" x="213.6384" y="796.6704">Return summary, outcome and failures</text><ellipse cx="308.4006" cy="840.2002" fill="none" rx="11" ry="11" style="stroke:#222222;stroke-width:1;"/><ellipse cx="308.4006" cy="840.2002" fill="#222222" rx="6" ry="6" style="stroke:#222222;stroke-width:1;"/><line style="stroke:#000000;stroke-width:1;" x1="308.4006" x2="308.4006" y1="70" y2="90"/><polygon fill="#000000" points="304.4006,80,308.4006,90,312.4006,80,308.4006,84" style="stroke:#000000;stroke-width:1;"/><line style="stroke:#000000;stroke-width:1;" x1="308.4006" x2="308.4006" y1="236.2002" y2="256.2002"/><polygon fill="#000000" points="304.4006,246.2002,308.4006,256.2002,312.4006,246.2002,308.4006,250.2002" style="stroke:#000000;stroke-width:1;"/><line style="stroke:#000000;stroke-width:1;" x1="214.7815" x2="204.7815" y1="323.2002" y2="323.2002"/><line style="stroke:#000000;stroke-width:1;" x1="204.7815" x2="204.7815" y1="323.2002" y2="345.2002"/><polygon fill="#000000" points="200.7815,335.2002,204.7815,345.2002,208.7815,335.2002,204.7815,339.2002" style="stroke:#000000;stroke-width:1;"/><line style="stroke:#000000;stroke-width:1;" x1="402.0198" x2="412.0198" y1="323.2002" y2="323.2002"/><line style="stroke:#000000;stroke-width:1;" x1="412.0198" x2="412.0198" y1="323.2002" y2="345.2002"/><polygon fill="#000000" points="408.0198,335.2002,412.0198,345.2002,416.0198,335.2002,412.0198,339.2002" style="stroke:#000000;stroke-width:1;"/><line style="stroke:#000000;stroke-width:1;" x1="204.7815" x2="204.7815" y1="376.2002" y2="394.2002"/><line style="stroke:#000000;stroke-width:1;" x1="204.7815" x2="296.4006" y1="394.2002" y2="394.2002"/><polygon fill="#000000" points="286.4006,390.2002,296.4006,394.2002,286.4006,398.2002,290.4006,394.2002" style="stroke:#000000;stroke-width:1;"/><line style="stroke:#000000;stroke-width:1;" x1="412.0198" x2="412.0198" y1="376.2002" y2="394.2002"/><line style="stroke:#000000;stroke-width:1;" x1="412.0198" x2="320.4006" y1="394.2002" y2="394.2002"/><polygon fill="#000000" points="330.4006,390.2002,320.4006,394.2002,330.4006,398.2002,326.4006,394.2002" style="stroke:#000000;stroke-width:1;"/><line style="stroke:#000000;stroke-width:1;" x1="308.4006" x2="308.4006" y1="287.2002" y2="311.2002"/><polygon fill="#000000" points="304.4006,301.2002,308.4006,311.2002,312.4006,301.2002,308.4006,305.2002" style="stroke:#000000;stroke-width:1;"/><line style="stroke:#000000;stroke-width:1;" x1="308.4006" x2="308.4006" y1="165" y2="194.2002"/><polygon fill="#000000" points="304.4006,184.2002,308.4006,194.2002,312.4006,184.2002,308.4006,188.2002" style="stroke:#000000;stroke-width:1;"/><line style="stroke:#000000;stroke-width:1;" x1="308.4006" x2="308.4006" y1="406.2002" y2="416.2002"/><line style="stroke:#000000;stroke-width:1;" x1="308.4006" x2="532.6404" y1="416.2002" y2="416.2002"/><polygon fill="#000000" points="528.6404,291.2002,532.6404,281.2002,536.6404,291.2002,532.6404,287.2002" style="stroke:#000000;stroke-width:1;"/><line style="stroke:#000000;stroke-width:1;" x1="532.6404" x2="532.6404" y1="153" y2="416.2002"/><line style="stroke:#000000;stroke-width:1;" x1="532.6404" x2="438.7124" y1="153" y2="153"/><polygon fill="#000000" points="448.7124,149,438.7124,153,448.7124,157,444.7124,153" style="stroke:#000000;stroke-width:1;"/><line style="stroke:#000000;stroke-width:1;" x1="178.0889" x2="138.5435" y1="153" y2="153"/><polygon fill="#000000" points="134.5435,277.2002,138.5435,287.2002,142.5435,277.2002,138.5435,281.2002" style="stroke:#000000;stroke-width:1;"/><line style="stroke:#000000;stroke-width:1;" x1="138.5435" x2="138.5435" y1="153" y2="428.2002"/><line style="stroke:#000000;stroke-width:1;" x1="138.5435" x2="308.4006" y1="428.2002" y2="428.2002"/><line style="stroke:#000000;stroke-width:1;" x1="308.4006" x2="308.4006" y1="428.2002" y2="433.2002"/><line style="stroke:#000000;stroke-width:1;" x1="308.4006" x2="308.4006" y1="121" y2="141"/><polygon fill="#000000" points="304.4006,131,308.4006,141,312.4006,131,308.4006,135" style="stroke:#000000;stroke-width:1;"/><line style="stroke:#000000;stroke-width:1;" x1="161.3931" x2="161.3931" y1="472.2002" y2="502.2002"/><polygon fill="#000000" points="157.3931,492.2002,161.3931,502.2002,165.3931,492.2002,161.3931,496.2002" style="stroke:#000000;stroke-width:1;"/><line style="stroke:#000000;stroke-width:1;" x1="161.3931" x2="161.3931" y1="533.2002" y2="553.2002"/><polygon fill="#000000" points="157.3931,543.2002,161.3931,553.2002,165.3931,543.2002,161.3931,547.2002" style="stroke:#000000;stroke-width:1;"/><line style="stroke:#000000;stroke-width:1;" x1="299.543" x2="299.543" y1="472.2002" y2="502.2002"/><polygon fill="#000000" points="295.543,492.2002,299.543,502.2002,303.543,492.2002,299.543,496.2002" style="stroke:#000000;stroke-width:1;"/><line style="stroke:#000000;stroke-width:1;" x1="299.543" x2="299.543" y1="533.2002" y2="553.2002"/><polygon fill="#000000" points="295.543,543.2002,299.543,553.2002,303.543,543.2002,299.543,547.2002" style="stroke:#000000;stroke-width:1;"/><line style="stroke:#000000;stroke-width:1;" x1="216.4988" x2="236.4988" y1="460.2002" y2="460.2002"/><polygon fill="#000000" points="226.4988,456.2002,236.4988,460.2002,226.4988,464.2002,230.4988,460.2002" style="stroke:#000000;stroke-width:1;"/><line style="stroke:#000000;stroke-width:1;" x1="308.4006" x2="161.3931" y1="433.2002" y2="433.2002"/><line style="stroke:#000000;stroke-width:1;" x1="161.3931" x2="161.3931" y1="433.2002" y2="448.2002"/><polygon fill="#000000" points="157.3931,438.2002,161.3931,448.2002,165.3931,438.2002,161.3931,442.2002" style="stroke:#000000;stroke-width:1;"/><line style="stroke:#000000;stroke-width:1;" x1="362.5872" x2="446.5505" y1="460.2002" y2="460.2002"/><line style="stroke:#000000;stroke-width:1;" x1="446.5505" x2="446.5505" y1="460.2002" y2="500.2002"/><polygon fill="#000000" points="442.5505,490.2002,446.5505,500.2002,450.5505,490.2002,446.5505,494.2002" style="stroke:#000000;stroke-width:1;"/><line style="stroke:#000000;stroke-width:1;" x1="446.5505" x2="446.5505" y1="531.2002" y2="553.2002"/><polygon fill="#000000" points="442.5505,543.2002,446.5505,553.2002,450.5505,543.2002,446.5505,547.2002" style="stroke:#000000;stroke-width:1;"/><line style="stroke:#000000;stroke-width:1;" x1="161.3931" x2="446.5505" y1="553.2002" y2="553.2002"/><line style="stroke:#000000;stroke-width:1;" x1="308.4006" x2="308.4006" y1="553.2002" y2="573.2002"/><polygon fill="#000000" points="304.4006,563.2002,308.4006,573.2002,312.4006,563.2002,308.4006,567.2002" style="stroke:#000000;stroke-width:1;"/><line style="stroke:#000000;stroke-width:1;" x1="308.4006" x2="308.4006" y1="659.2002" y2="683.2002"/><polygon fill="#000000" points="304.4006,673.2002,308.4006,683.2002,312.4006,673.2002,308.4006,677.2002" style="stroke:#000000;stroke-width:1;"/><line style="stroke:#000000;stroke-width:1;" x1="401.1013" x2="413.1013" y1="647.2002" y2="647.2002"/><polygon fill="#000000" points="409.1013,688.7002,413.1013,698.7002,417.1013,688.7002,413.1013,692.7002" style="stroke:#000000;stroke-width:1;"/><line style="stroke:#000000;stroke-width:1;" x1="413.1013" x2="413.1013" y1="647.2002" y2="746.2002"/><line style="stroke:#000000;stroke-width:1;" x1="413.1013" x2="320.4006" y1="746.2002" y2="746.2002"/><polygon fill="#000000" points="330.4006,742.2002,320.4006,746.2002,330.4006,750.2002,326.4006,746.2002" style="stroke:#000000;stroke-width:1;"/><line style="stroke:#000000;stroke-width:1;" x1="308.4006" x2="308.4006" y1="714.2002" y2="734.2002"/><polygon fill="#000000" points="304.4006,724.2002,308.4006,734.2002,312.4006,724.2002,308.4006,728.2002" style="stroke:#000000;stroke-width:1;"/><line style="stroke:#000000;stroke-width:1;" x1="308.4006" x2="308.4006" y1="615.2002" y2="635.2002"/><polygon fill="#000000" points="304.4006,625.2002,308.4006,635.2002,312.4006,625.2002,308.4006,629.2002" style="stroke:#000000;stroke-width:1;"/><line style="stroke:#000000;stroke-width:1;" x1="308.4006" x2="308.4006" y1="758.2002" y2="778.2002"/><polygon fill="#000000" points="304.4006,768.2002,308.4006,778.2002,312.4006,768.2002,308.4006,772.2002" style="stroke:#000000;stroke-width:1;"/><line style="stroke:#000000;stroke-width:1;" x1="308.4006" x2="308.4006" y1="809.2002" y2="829.2002"/><polygon fill="#000000" points="304.4006,819.2002,308.4006,829.2002,312.4006,819.2002,308.4006,823.2002" style="stroke:#000000;stroke-width:1;"/><g class="caption" data-source-line="29"><text fill="#000000" font-family="Helvetica" font-size="14" lengthAdjust="spacing" textLength="624.9277" x="11" y="871.9805">Source: agent/src/optiondesk_agent/graph.py. Artifact completion does not establish a trading thesis.</text></g></g></svg>