<svg xmlns="http://www.w3.org/2000/svg" xmlns:xlink="http://www.w3.org/1999/xlink" contentStyleType="text/css" data-diagram-type="STATE" height="569.7917px" preserveAspectRatio="none" style="width:1060px;height:569px;background:#FFFFFF;" version="1.1" viewBox="0 0 1060 569" width="1060.4167px" zoomAndPan="magnify"><?plantuml 1.2026.3?><defs/><g><g class="title" data-source-line="2"><polygon fill="none" points="230.9814,20.8333,230.9814,21.0523,241.454,20.4017,251.9266,21.0347,262.3993,21.2497,272.8719,20.0902,283.3445,20.7524,293.8172,20.3891,304.2898,20.4339,314.7624,20.7623,325.2351,20.1132,335.7077,21.41,346.1803,20.1768,356.653,20.6273,367.1256,21.2833,377.5982,20.744,388.0709,20.9044,398.5435,20.8001,409.0161,21.0193,419.4888,21.0824,429.9614,21.4434,440.434,21.5323,450.9067,21.5409,461.3793,21.0986,471.8519,21.3162,482.3246,21.5648,492.7972,20.0821,503.2698,21.5401,513.7425,20.5245,524.2151,21.3894,534.6877,20.3177,545.1604,20.762,555.633,21.6058,566.1056,20.7826,576.5783,20.943,587.0509,21.1861,597.5235,21.2669,607.9962,20.8293,618.4688,21.1325,628.9414,20.2371,639.4141,21.1296,649.8867,21.4044,660.3593,21.2964,670.832,21.4719,681.3046,20.3301,691.7772,20.154,702.2499,20.186,712.7225,20.772,723.1951,20.6286,733.6678,21.5431,744.1404,20.6514,754.613,20.476,765.0857,21.0711,775.5583,20.1387,786.0309,20.2926,796.5036,21.5093,806.9762,21.2872,817.4488,21.5984,827.9215,20.8333,827.8787,20.7301,828.5531,21.1798,829.1784,21.5109,829.6265,21.414,830.2658,21.7789,830.8677,22.0537,830.9082,22.0705,831.3209,22.7296,831.3546,23.2317,831.7484,23.883,831.6664,24.3372,832.0881,25,831.853,25,832.263,30.7406,831.8392,36.4811,832.2649,42.2217,832.1599,47.9622,832.0881,53.7028,832.0022,53.6672,831.7306,54.245,831.7471,54.9423,831.2599,55.4308,831.3017,56.1385,830.8677,56.6491,830.7943,56.4718,830.3605,57.0912,829.7536,57.2926,829.1325,57.4599,828.517,57.6405,827.9215,57.8695,827.9215,58.6264,817.4488,58.5086,806.9762,58.0458,796.5036,58.1488,786.0309,57.7338,775.5583,58.6158,765.0857,58.0308,754.613,58.0492,744.1404,57.2358,733.6678,57.4474,723.1951,58.4223,712.7225,58.3171,702.2499,57.8247,691.7772,57.5339,681.3046,57.6414,670.832,57.1547,660.3593,58.3015,649.8867,58.6398,639.4141,58.4178,628.9414,58.5934,618.4688,57.727,607.9962,57.9603,597.5235,57.4657,587.0509,58.1653,576.5783,58.1265,566.1056,58.4449,555.633,57.6302,545.1604,57.7295,534.6877,58.3314,524.2151,58.4604,513.7425,57.3356,503.2698,57.6675,492.7972,58.0249,482.3246,57.2332,471.8519,58.2376,461.3793,58.1382,450.9067,57.7645,440.434,58.0176,429.9614,58.6285,419.4888,57.5436,409.0161,58.1976,398.5435,58.167,388.0709,57.9901,377.5982,58.0163,367.1256,57.9877,356.653,57.2193,346.1803,57.4519,335.7077,57.3887,325.2351,57.936,314.7624,57.9613,304.2898,58.038,293.8172,57.5664,283.3445,57.7991,272.8719,57.7442,262.3993,58.4704,251.9266,58.3138,241.454,57.3637,230.9814,57.8695,230.9717,57.8461,230.3154,57.4402,229.8412,57.4738,229.2945,57.3324,228.6967,57.0678,228.0351,56.6491,227.8954,56.5912,227.9398,56.1215,227.3086,55.3719,227.3671,54.9079,226.9628,54.2523,226.8147,53.7028,226.8483,53.7028,226.8981,47.9622,226.9786,42.2217,226.5647,36.4811,226.9798,30.7406,226.8147,25,226.8719,25.0237,227.1728,24.458,227.5427,23.9209,227.5487,23.233,227.8472,22.6663,228.0351,22.0537,228.0634,22.1222,228.6505,21.8729,229.2135,21.5653,229.8973,21.5495,230.3111,20.8818,230.9814,20.8333" style="stroke:#4D4D4D;stroke-width:1.0417;"/><text fill="#2E2E2E" font-family="'Segoe Print'" font-size="20.8333" font-weight="700" lengthAdjust="spacing" textLength="592.7734" x="233.0647" y="47.2249">Option Desk - Forward paper testing and ledger states</text></g><g class="entity" data-qualified-name="Open" id="ent0002"><polygon fill="#FFFFFF" points="328.9896,176.8278,328.9896,177.0467,339.5174,176.3962,350.0452,177.0291,360.573,177.2441,371.1008,176.0847,381.6286,176.7468,392.1564,176.3835,402.6842,176.4283,413.212,176.7568,423.7398,176.1076,434.2676,177.4045,444.7954,176.1713,455.3232,176.8278,455.2969,176.7644,455.9699,177.2104,456.4903,177.2884,457.1,177.5819,457.676,177.7939,458.2695,178.0482,458.3267,178.0719,458.5903,178.6692,458.9455,179.3045,459.217,179.9051,459.4637,180.4955,459.4899,180.9945,459.5783,180.9945,459.6508,189.7445,459.7337,198.4945,459.2395,207.2445,459.7255,215.9945,459.4899,224.7445,459.3948,224.7051,459.417,225.4047,458.8429,225.8572,458.7357,226.5031,458.7515,227.2,458.2695,227.6907,458.263,227.6751,457.6942,227.9686,457.136,228.2875,456.557,228.5565,455.9119,228.6658,455.3232,228.9111,455.3232,229.2103,444.7954,228.3149,434.2676,229.2074,423.7398,229.4822,413.212,229.3742,402.6842,229.5497,392.1564,228.4079,381.6286,228.2318,371.1008,228.2638,360.573,228.8498,350.0452,228.7064,339.5174,229.6209,328.9896,228.9111,328.9664,228.8551,328.3547,228.557,327.8414,228.4962,327.1332,227.965,326.5636,227.7683,326.0433,227.6907,326.2515,227.777,325.939,227.1594,325.7908,226.6098,325.2078,225.8802,325.1694,225.3761,324.8229,224.7445,325.0279,224.7445,324.6589,215.9945,324.7896,207.2445,324.8667,198.4945,325.0492,189.7445,324.8229,180.9945,324.8216,180.9939,325.2154,180.4667,325.1334,179.7424,325.3379,179.1367,325.9608,178.7044,326.0433,178.0482,325.948,177.8182,326.7002,177.9674,327.2493,177.6263,327.7755,177.23,328.3533,176.9584,328.9896,176.8278" style="stroke:#333333;stroke-width:1.0417;"/><path d="M324.8229,200.7393 L324.8229,201.0313 L335.1819,200.1639 L345.5409,201.0078 L355.8999,201.2944 L366.2589,199.7485 L376.6179,200.6314 L386.9769,200.147 L397.3359,200.2067 L407.6949,200.6447 L418.0539,199.7791 L428.4129,201.5083 L438.7719,199.8639 L449.1309,200.4647 L459.4899,200.7393" fill="#FFFFFF" style="stroke:#333333;stroke-width:1.0417;"/><text fill="#FFFFFF" font-family="'Segoe Print'" font-size="11.4583" lengthAdjust="spacing" textLength="113.8336" x="335.2396" y="193.114">Open paper position</text></g><g class="entity" data-qualified-name="Mark" id="ent0003"><polygon fill="#FFFFFF" points="135.2604,310.5778,135.2604,310.7967,145.1814,310.1462,155.1023,310.7791,165.0233,310.9941,174.9443,309.8347,184.8652,310.4968,194.7862,310.1335,204.7071,310.1783,214.6281,310.5068,224.5491,309.8576,234.47,310.5778,234.5436,310.7554,234.9755,310.6197,235.6222,311.0025,236.2952,311.4486,236.8156,311.5266,237.4163,311.7982,237.4382,311.8073,237.6501,312.3832,237.9617,313.0004,238.2252,313.5977,238.5805,314.233,238.6367,314.7445,238.8697,314.7445,238.8725,323.4945,238.7251,332.2445,238.7976,340.9945,238.8805,349.7445,238.6367,358.4945,238.4053,358.3986,238.6103,359.1739,238.0534,359.6336,238.0757,360.3332,237.5016,360.7857,237.4163,361.4407,237.4072,361.4188,236.9256,361.9227,236.2313,361.9133,235.6625,362.2068,235.1043,362.5257,234.47,362.6611,234.47,363.0947,224.5491,362.6571,214.6281,362.9603,204.7071,362.0649,194.7862,362.9574,184.8652,363.2322,174.9443,363.1242,165.0233,363.2997,155.1023,362.1579,145.1814,361.9818,135.2604,362.6611,135.1778,362.4618,134.6633,362.3982,134.0558,362.1099,133.5832,362.1475,132.8802,361.6288,132.3141,361.4407,132.2041,361.3952,132.1433,360.8818,131.6121,360.1736,131.4154,359.604,131.546,359.17,131.0938,358.4945,131.245,358.4945,131.3488,349.7445,130.982,340.9945,131.2046,332.2445,131.2988,323.4945,131.0938,314.7445,130.9422,314.6817,131.3071,314.1425,131.6223,313.5827,132.0351,313.0633,132.0687,312.3869,132.3141,311.7982,132.3756,311.9466,132.8298,311.3765,133.4027,311.0928,134.1488,311.2275,134.5759,310.5919,135.2604,310.5778" style="stroke:#333333;stroke-width:1.0417;"/><path d="M131.0938,334.4893 L131.0938,334.7813 L141.848,333.9139 L152.6023,334.7578 L163.3566,335.0444 L174.1109,333.4985 L184.8652,334.3814 L195.6195,333.897 L206.3738,333.9567 L217.1281,334.3947 L227.8824,333.5291 L238.6367,334.4893" fill="#FFFFFF" style="stroke:#333333;stroke-width:1.0417;"/><text fill="#FFFFFF" font-family="'Segoe Print'" font-size="11.4583" lengthAdjust="spacing" textLength="86.7096" x="141.5104" y="326.864">Mark requested</text></g><g class="entity" data-qualified-name="Marked" id="ent0004"><polygon fill="#FFFFFF" points="52.2188,444.3278,52.2188,444.5467,62.3887,443.8962,72.5587,444.5291,82.7287,444.7441,92.8987,443.5847,103.0687,444.2468,113.2386,443.8835,123.4086,443.9283,133.5786,444.2568,143.7486,443.6076,153.9186,444.9045,164.0886,443.6713,174.2585,444.1218,184.4285,444.7777,194.5985,444.3278,194.5871,444.3003,195.1968,444.5938,195.7728,444.8057,196.39,445.1173,196.9873,445.3808,197.5448,445.5482,197.7327,445.626,198.0041,446.2266,198.2508,446.817,198.3587,447.3498,198.6698,447.9668,198.7652,448.4945,199.009,448.4945,198.5148,457.2445,199.0008,465.9945,198.6622,474.7445,198.9505,483.4945,198.7652,492.2445,198.6064,492.1787,198.4991,492.8246,198.5149,493.5215,198.0173,494.0058,197.8226,494.6155,197.5448,495.1907,197.5898,495.2994,197.0108,495.5683,196.3658,495.6776,195.8152,496.0151,195.1117,495.9834,194.5985,496.4111,194.5985,496.7074,184.4285,496.9822,174.2585,496.8742,164.0886,497.0497,153.9186,495.9079,143.7486,495.7318,133.5786,495.7638,123.4086,496.3498,113.2386,496.2064,103.0687,497.1209,92.8987,496.2292,82.7287,496.0538,72.5587,496.6489,62.3887,495.7165,52.2188,496.4111,52.1498,496.2446,51.7157,496.3752,51.0981,496.0627,50.5486,495.9145,49.819,495.3316,49.2725,495.1907,49.3749,495.2332,49.2178,494.6799,48.6328,493.9495,48.5095,493.4102,48.3366,492.8505,48.0521,492.2445,48.2784,492.2445,48.0506,483.4945,48.2127,474.7445,47.8598,465.9945,47.8169,457.2445,48.0521,448.4945,48.2136,448.5614,48.0662,447.8099,48.7035,447.3836,48.8506,446.7542,48.9424,446.1018,49.2725,445.5482,49.2255,445.4347,49.9227,445.4513,50.4112,444.964,51.1189,445.0058,51.556,444.3946,52.2188,444.3278" style="stroke:#333333;stroke-width:1.0417;"/><path d="M48.0521,481.7342 L48.0521,482.0261 L58.8173,481.1588 L69.5825,482.0027 L80.3477,482.2893 L91.113,480.7434 L101.8782,481.6263 L112.6434,481.1419 L123.4086,481.2016 L134.1739,481.6396 L144.9391,480.774 L155.7043,482.5032 L166.4695,480.8588 L177.2347,481.4595 L188,482.3341 L198.7652,481.7342" fill="#FFFFFF" style="stroke:#333333;stroke-width:1.0417;"/><text fill="#FFFFFF" font-family="'Segoe Print'" font-size="11.4583" lengthAdjust="spacing" textLength="129.8798" x="58.4688" y="460.614">Append complete mark</text><text fill="#FFFFFF" font-family="'Segoe Print'" font-size="11.4583" lengthAdjust="spacing" textLength="96.109" x="58.4688" y="474.1089">and quality notes</text></g><g class="entity" data-qualified-name="Missing" id="ent0005"><polygon fill="#FFFFFF" points="246.6979,444.3278,246.6979,444.5467,257.0712,443.8962,267.4445,444.5291,277.8179,444.7441,288.1912,443.5847,298.5645,444.2468,308.9378,443.8835,319.3111,443.9283,329.6844,444.2568,340.0577,443.6076,350.4311,444.9045,360.8044,443.6713,371.1777,444.1218,381.551,444.7777,391.9243,444.2384,402.2976,444.3989,412.6709,444.2945,423.0443,444.3278,423.068,444.3851,423.6653,444.6486,424.3006,445.0038,424.9012,445.2753,425.4915,445.522,425.9905,445.5482,426.0722,445.582,426.3833,446.199,426.704,446.82,426.4914,447.2201,427.1845,447.9954,427.2109,448.4945,427.108,448.4945,427.3963,457.2445,427.039,465.9945,427.1871,474.7445,427.4684,483.4945,427.2109,492.2445,427.1953,492.238,427.0006,492.8477,426.8314,493.468,426.6122,494.0675,426.2334,494.601,425.9905,495.1907,426.0287,495.2829,425.3252,495.2512,424.8498,495.7701,424.2956,496.0988,423.6926,496.3097,423.0443,496.4111,423.0443,497.0497,412.6709,495.9079,402.2976,495.7318,391.9243,495.7638,381.551,496.3498,371.1777,496.2064,360.8044,497.1209,350.4311,496.2292,340.0577,496.0538,329.6844,496.6489,319.3111,495.7165,308.9378,495.8704,298.5645,497.0871,288.1912,496.865,277.8179,497.1762,267.4445,496.0759,257.0712,496.7436,246.6979,496.4111,246.7764,496.6005,246.0459,496.0155,245.5067,495.8922,244.9469,495.7193,244.4275,495.6439,243.7516,495.1907,243.7503,495.1902,243.6559,494.663,243.0858,493.9386,242.8021,493.333,242.9369,492.9006,242.5313,492.2445,242.2823,492.2445,242.708,483.4945,242.603,474.7445,242.4382,465.9945,242.4084,457.2445,242.5313,448.4945,242.6784,448.5554,242.6793,447.8654,243.2093,447.3946,243.0862,446.6533,243.7056,446.2195,243.7516,445.5482,243.816,445.7035,244.3734,445.3827,244.9364,445.0752,245.616,445.049,246.1902,444.7687,246.6979,444.3278" style="stroke:#333333;stroke-width:1.0417;"/><path d="M242.5313,481.7342 L242.5313,482.0261 L252.7912,481.1588 L263.0512,482.0027 L273.3112,482.2893 L283.5712,480.7434 L293.8312,481.6263 L304.0911,481.1419 L314.3511,481.2016 L324.6111,481.6396 L334.8711,480.774 L345.1311,482.5032 L355.391,480.8588 L365.651,481.4595 L375.911,482.3341 L386.171,481.6151 L396.431,481.829 L406.691,481.6898 L416.9509,481.9822 L427.2109,481.7342" fill="#FFFFFF" style="stroke:#333333;stroke-width:1.0417;"/><text fill="#FFFFFF" font-family="'Segoe Print'" font-size="11.4583" lengthAdjust="spacing" textLength="106.3477" x="252.9479" y="460.614">Report unmarkable</text><text fill="#FFFFFF" font-family="'Segoe Print'" font-size="11.4583" lengthAdjust="spacing" textLength="163.8463" x="252.9479" y="474.1089">keep numeric P/L unavailable</text></g><g class="entity" data-qualified-name="Closed" id="ent0006"><polygon fill="#FFFFFF" points="704.7188,310.5778,704.7188,310.7967,715.1268,310.1462,725.5349,310.7791,735.9429,310.9941,746.351,309.8347,756.759,310.4968,767.1671,310.1335,777.5751,310.1783,787.9832,310.5068,798.3912,309.8576,808.7993,311.1545,819.2073,309.9213,829.6154,310.3718,840.0235,311.0277,850.4315,310.4884,860.8396,310.5778,860.8486,310.5997,861.4246,310.8116,862.0418,311.1232,862.6391,311.3867,863.2744,311.742,863.7858,311.7982,864.0011,311.8874,864.2478,312.4777,864.3557,313.0105,864.6668,313.6276,864.9874,314.2485,865.0062,314.7445,864.7558,314.7445,865.2418,323.4945,864.9033,332.2445,865.1916,340.9945,864.8343,349.7445,865.0062,358.4945,864.9843,358.4854,865,359.1823,864.5024,359.6665,864.3078,360.2762,864.1385,360.8965,863.7858,361.4407,863.8411,361.5743,863.1961,361.6836,862.6455,362.021,861.942,361.9894,861.4666,362.5083,860.8396,362.6611,860.8396,363.2322,850.4315,363.1242,840.0235,363.2997,829.6154,362.1579,819.2073,361.9818,808.7993,362.0138,798.3912,362.5998,787.9832,362.4564,777.5751,363.3709,767.1671,362.4792,756.759,362.3038,746.351,362.8989,735.9429,361.9665,725.5349,362.1204,715.1268,363.3371,704.7188,362.6611,704.7766,362.8009,704.2271,362.6527,703.4975,362.0697,702.9934,362.0313,702.4402,361.8742,701.7725,361.4407,701.6209,361.378,701.4976,360.8388,701.3247,360.279,701.2493,359.7596,700.7948,359.0832,700.5521,358.4945,700.7127,358.4945,700.3598,349.7445,700.3169,340.9945,700.7269,332.2445,700.3031,323.4945,700.5521,314.7445,700.7154,314.8121,700.8624,314.1827,700.9543,313.5304,701.1708,312.9297,701.6756,312.4484,701.7725,311.7982,701.7327,311.7022,702.4404,311.744,702.8775,311.1327,703.6223,311.264,704.1938,310.9772,704.7188,310.5778" style="stroke:#333333;stroke-width:1.0417;"/><path d="M700.5521,347.9842 L700.5521,348.2761 L710.8305,347.4088 L721.1089,348.2527 L731.3872,348.5393 L741.6656,346.9934 L751.944,347.8763 L762.2224,347.3919 L772.5008,347.4516 L782.7792,347.8896 L793.0575,347.024 L803.3359,348.7532 L813.6143,347.1088 L823.8927,347.7095 L834.1711,348.5841 L844.4495,347.8651 L854.7278,348.079 L865.0062,347.9842" fill="#FFFFFF" style="stroke:#333333;stroke-width:1.0417;"/><text fill="#FFFFFF" font-family="'Segoe Print'" font-size="11.4583" lengthAdjust="spacing" textLength="121.9406" x="710.9688" y="326.864">Closed paper position</text><text fill="#FFFFFF" font-family="'Segoe Print'" font-size="11.4583" lengthAdjust="spacing" textLength="143.6208" x="710.9688" y="340.3589">settlement and close time</text></g><g class="start_entity" data-qualified-name=".start." data-source-line="8" id="ent0002"><polygon fill="#17A2B8" points="402.6305,88.5282,401.1036,90.6145,399.2975,93.6703,396.7146,95.7297,394.0004,96.8558,391.8362,96.9536,389.0546,95.5452,386.4301,94.6251,384.438,92.7569,383.3931,90.6183,382.7734,88.9154,382.1663,86.6912,381.1809,84.7771,381.9381,82.9083,382.6015,80.8612,385.0912,79.2421,386.8428,77.1413,389.0108,76.4437,391.5882,75.843,394.8934,76.1999,396.7037,77.0537,398.8084,77.4407,401.3676,80.0626,402.2597,82.8306,402.6473,84.7192,402.2083,87.8315" style="stroke:#2E2E2E;stroke-width:1.0417;"/></g><g class="entity" data-qualified-name="GMN2" data-source-line="17" id="ent0003"><path d="M37.5,179.7445 L37.6946,179.7445 L37.1164,188.9941 L37.679,198.2438 L37.8701,207.4935 L36.8394,216.7432 L37.5,225.9928 L41.6667,230.1595 L41.6667,229.9436 L52.2166,228.9748 L62.7666,229.0942 L73.3166,229.9702 L83.8666,228.239 L94.4165,231.6974 L104.9665,228.4087 L115.5165,229.6102 L126.0664,231.3594 L136.6164,229.9212 L147.1664,230.3491 L157.7163,230.0708 L168.2663,230.6554 L178.8163,230.8238 L189.3663,231.7864 L199.9162,232.0235 L210.4662,232.0463 L221.0162,230.8668 L231.5661,231.4472 L242.1161,232.1101 L252.6661,228.1562 L263.2161,232.0443 L273.766,229.3359 L284.316,230.1595 L288.4827,225.9928 L288.9769,225.9928 L288.0243,222.2015 L288.4192,218.4102 L289.1693,214.6188 L288.4375,210.8275 L288.4827,207.0361 L288.4939,207.133 L295.6828,206.5142 L302.855,205.7523 L309.9739,204.5325 L317.1689,203.967 L324.3021,202.8695 L324.2408,202.343 L317.1686,202.2977 L310.033,201.707 L302.858,200.7783 L295.7121,200.0999 L288.4827,198.7028 L288.0354,198.7028 L287.8788,196.1611 L287.9073,193.6195 L288.4281,191.0778 L288.3007,188.5361 L288.4827,185.9945 L288.9288,186.4406 L286.285,183.7968 L284.0914,181.6032 L282.3821,179.8939 L279.7127,177.2245 L278.066,175.5778 L278.066,174.1358 L267.7878,177.3804 L257.5095,176.788 L247.2313,177.6181 L236.9531,174.6839 L226.6748,176.4645 L216.3966,177.2179 L206.1184,174.2656 L195.8401,175.3115 L185.5619,175.9278 L175.2837,177.3882 L165.0054,175.5662 L154.7272,176.8627 L144.449,174.0395 L134.1708,173.6965 L123.8925,176.9767 L113.6143,173.5863 L103.3361,176.9916 L93.0578,176.1518 L82.7796,174.8336 L72.5014,174.5951 L62.2231,176.8521 L51.9449,174.7463 L41.6667,175.5778 L37.5,179.7445" fill="#17A2B8" style="stroke:#1592A6;stroke-width:1.0417;"/><path d="M278.066,175.5778 L278.2606,175.5778 L277.6824,177.2445 L278.245,178.9111 L278.4361,180.5778 L277.4054,182.2445 L278.066,183.9111 L280.1493,185.9945 L280.1493,185.9225 L281.816,185.5996 L283.4827,185.6394 L285.1493,185.9314 L286.816,185.3543 L288.4827,185.9945 L288.8452,186.357 L285.9867,183.4985 L284.1865,181.6983 L282.5155,180.0273 L280.0932,177.605 L278.066,175.5778" fill="#17A2B8" style="stroke:#1592A6;stroke-width:1.0417;"/><text fill="#FFFFFF" font-family="'Segoe Print'" font-size="12.5" lengthAdjust="spacing" textLength="204.4128" x="43.75" y="192.8711">Entry preserves legs, prices, spot,</text><text fill="#FFFFFF" font-family="'Segoe Print'" font-size="12.5" lengthAdjust="spacing" textLength="229.1077" x="43.75" y="207.5928">time, source plan and optional thesis.</text><text fill="#FFFFFF" font-family="'Segoe Print'" font-size="12.5" lengthAdjust="spacing" textLength="143.8721" x="43.75" y="222.3145">Status reads the ledger.</text></g><g class="entity" data-qualified-name="GMN5" data-source-line="22" id="ent0006"><path d="M274.8125,313.4945 L275.0071,313.4945 L274.4289,317.2861 L274.9915,321.0778 L275.1826,324.8695 L274.1519,328.6611 L274.8125,332.4528 L274.8042,332.3813 L267.5588,332.8938 L260.3551,333.7667 L253.1803,334.8901 L245.9056,335.1502 L238.7708,336.6195 L238.8297,337.1287 L245.9121,336.8731 L253.1665,338.1042 L260.4418,339.5168 L267.595,339.8739 L274.8125,340.7861 L274.8757,340.7861 L274.7829,344.5775 L274.9778,348.3688 L275.0339,352.1602 L275.3548,355.9515 L274.8125,359.7428 L278.9792,363.9095 L278.9792,365.7735 L289.5451,365.7963 L300.111,364.6168 L310.6768,365.1972 L321.2427,365.8601 L331.8086,361.9062 L342.3745,365.7943 L352.9404,363.0859 L363.5063,365.3923 L374.0722,362.5344 L384.6381,363.7192 L395.204,365.9695 L405.7699,363.7741 L416.3358,364.202 L426.9017,364.8501 L437.4676,365.0657 L448.0335,363.8987 L458.5994,364.7073 L469.1652,362.3195 L479.7311,364.6995 L490.297,365.4323 L500.8629,365.1443 L511.4288,365.6124 L521.9947,363.9095 L526.1614,359.7428 L525.7141,359.7428 L525.5575,351.7432 L525.586,343.7435 L526.1069,335.7438 L525.9794,327.7441 L526.1614,319.7445 L526.6075,320.1906 L523.9637,317.5468 L521.7701,315.3532 L520.0608,313.6439 L517.3914,310.9745 L515.7447,309.3278 L515.7447,307.8858 L505.4506,311.1304 L495.1564,310.538 L484.8622,311.3681 L474.5681,308.4339 L464.2739,310.2145 L453.9798,310.9679 L443.6856,308.0156 L433.3915,309.0615 L423.0973,309.6778 L412.8032,311.1382 L402.509,309.3162 L392.2149,310.6127 L381.9207,307.7895 L371.6266,307.4465 L361.3324,310.7267 L351.0382,307.3363 L340.7441,310.7416 L330.4499,309.9018 L320.1558,308.5836 L309.8616,308.3451 L299.5675,310.6021 L289.2733,308.4963 L278.9792,309.3278 L274.8125,313.4945" fill="#17A2B8" style="stroke:#1592A6;stroke-width:1.0417;"/><path d="M515.7447,309.3278 L515.9393,309.3278 L515.3611,310.9945 L515.9237,312.6611 L516.1148,314.3278 L515.0842,315.9945 L515.7447,317.6611 L517.828,319.7445 L517.828,319.6725 L519.4947,319.3496 L521.1614,319.3894 L522.828,319.6814 L524.4947,319.1043 L526.1614,319.7445 L526.5239,320.107 L523.6654,317.2485 L521.8652,315.4483 L520.1942,313.7773 L517.7719,311.355 L515.7447,309.3278" fill="#17A2B8" style="stroke:#1592A6;stroke-width:1.0417;"/><text fill="#FFFFFF" font-family="'Segoe Print'" font-size="12.5" lengthAdjust="spacing" textLength="193.219" x="281.0625" y="326.6211">Newest matching chain on disk.</text><text fill="#FFFFFF" font-family="'Segoe Print'" font-size="12.5" lengthAdjust="spacing" textLength="229.4739" x="281.0625" y="341.3428">Last-trade marks carry a quality note.</text><text fill="#FFFFFF" font-family="'Segoe Print'" font-size="12.5" lengthAdjust="spacing" textLength="171.5088" x="281.0625" y="356.0645">A missing quote is not zero.</text></g><g class="entity" data-qualified-name="GMN8" data-source-line="27" id="ent0009"><path d="M582.3229,447.2445 L582.5175,447.2445 L581.9393,456.4941 L582.5019,465.7438 L582.693,474.9935 L581.6624,484.2432 L582.3229,493.4928 L586.4896,497.6595 L586.4896,497.4436 L596.8207,496.4748 L607.1518,496.5942 L617.4829,497.4702 L627.814,495.739 L638.1451,499.1974 L648.4762,495.9087 L658.8074,497.1102 L669.1385,498.8594 L679.4696,497.4212 L689.8007,497.8491 L700.1318,497.5708 L710.4629,498.1554 L720.794,498.3238 L731.1251,499.2864 L741.4562,499.5235 L751.7873,499.5463 L762.1185,498.3668 L772.4496,498.9472 L782.7807,499.6101 L793.1118,495.6562 L803.4429,499.5443 L813.774,496.8359 L824.1051,499.1423 L834.4362,496.2844 L844.7673,497.4692 L855.0985,499.7195 L865.4296,497.5241 L875.7607,497.952 L886.0918,498.6001 L896.4229,498.8157 L906.754,497.6487 L917.0851,498.4573 L927.4162,496.0695 L937.7473,498.4495 L948.0784,499.1823 L958.4096,498.8943 L968.7407,499.3624 L979.0718,497.6595 L983.2384,493.4928 L982.7911,493.4928 L982.6346,485.4932 L982.6631,477.4935 L983.1839,469.4938 L983.0565,461.4941 L983.2384,453.4945 L983.6846,453.9406 L981.0407,451.2968 L978.8472,449.1032 L977.1379,447.3939 L974.4685,444.7245 L972.8218,443.0778 L972.8218,441.6358 L962.4955,444.8804 L952.1691,444.288 L941.8428,445.1181 L931.5165,442.1839 L921.1901,443.9645 L910.8638,444.7179 L900.5375,441.7656 L890.2112,442.8115 L879.8848,443.4278 L869.5585,444.8882 L859.2322,443.0662 L848.9059,444.3627 L838.5795,441.5395 L828.2532,441.1965 L817.9269,444.4767 L807.6006,441.0863 L797.2742,444.4916 L786.9479,443.0778 L787.5211,443.1076 L785.6839,433.0352 L784.9249,423.0189 L786.658,413.1323 L784.0342,403.0189 L785.9856,393.1437 L782.2896,382.9745 L785.0148,373.1396 L782.7813,363.0465 L784.1247,363.1165 L782.94,373.0858 L781.8706,383.0612 L783.2344,393.1632 L782.4,403.1508 L780.6466,413.0905 L780.4002,423.1087 L778.7741,433.0551 L778.6146,443.0778 L778.6146,445.0679 L767.941,443.508 L757.2674,443.5572 L746.5938,441.3879 L735.9201,441.9522 L725.2465,444.5521 L714.5729,444.2716 L703.8993,442.9585 L693.2257,442.1829 L682.5521,442.4697 L671.8785,441.1718 L661.2049,444.2298 L650.5313,445.1321 L639.8576,444.54 L629.184,445.0082 L618.5104,442.698 L607.8368,443.3201 L597.1632,442.0011 L586.4896,443.0778 L582.3229,447.2445" fill="#17A2B8" style="stroke:#1592A6;stroke-width:1.0417;"/><path d="M972.8218,443.0778 L973.0164,443.0778 L972.4381,444.7445 L973.0007,446.4111 L973.1919,448.0778 L972.1612,449.7445 L972.8218,451.4111 L974.9051,453.4945 L974.9051,453.4225 L976.5718,453.0996 L978.2384,453.1394 L979.9051,453.4314 L981.5718,452.8543 L983.2384,453.4945 L983.6009,453.857 L980.7424,450.9985 L978.9423,449.1983 L977.2713,447.5273 L974.849,445.105 L972.8218,443.0778" fill="#17A2B8" style="stroke:#1592A6;stroke-width:1.0417;"/><text fill="#FFFFFF" font-family="'Segoe Print'" font-size="12.5" lengthAdjust="spacing" textLength="235.2173" x="588.5729" y="460.3711">Close uses intrinsic-payoff settlement.</text><text fill="#FFFFFF" font-family="'Segoe Print'" font-size="12.5" lengthAdjust="spacing" textLength="342.1387" x="588.5729" y="475.0928">It is not an early-close fill or a general two-expiry mark.</text><text fill="#FFFFFF" font-family="'Segoe Print'" font-size="12.5" lengthAdjust="spacing" textLength="379.0405" x="588.5729" y="489.8145">Expiry and quote freshness are not enforced by the command.</text></g><!--link *start* to Open--><g class="link" data-entity-1="ent0002" data-entity-2="ent0002" data-link-type="dependency" data-source-line="8" id="lnk3"><path d="M392.1563,96.8278 L392.4482,96.8278 L391.5808,107.3025 L392.4247,117.7772 L392.7114,128.2519 L391.1654,138.7266 L392.0483,149.2013 L391.5639,159.676 L392.1563,170.1507" fill="none" style="stroke:#333333;stroke-width:3.125;"/><polygon fill="#333333" points="392.1563,176.4007,392.2229,176.4304,392.8581,174.4673,393.8842,172.678,394.7831,170.8321,395.2632,168.8001,396.3229,167.0257,396.3038,167.0066,395.3849,167.7543,394.5621,168.5982,393.8062,169.509,392.8198,170.1893,392.1563,171.1924,392.2922,171.3283,391.1682,170.2043,390.441,169.4772,389.7623,168.7984,388.8019,167.838,387.9896,167.0257,388.0112,167.0353,388.8128,168.8962,389.7129,170.8009,390.5655,172.6844,391.5088,174.6083,392.1563,176.4007" style="stroke:#333333;stroke-width:3.125;"/><text fill="#2E2E2E" font-family="'Segoe Print'" font-size="12.5" lengthAdjust="spacing" textLength="142.7673" x="393.1979" y="140.7878">open from a saved plan</text></g><!--link Open to Mark--><g class="link" data-entity-1="ent0002" data-entity-2="ent0003" data-link-type="dependency" data-source-line="9" id="lnk4"><path d="M352.1875,229.2965 L352.344,229.543 L343.1501,234.3557 L334.8738,240.6129 L326.2987,246.3997 L316.7409,250.6396 L308.4855,256.9297 L299.4969,262.0657 L290.8001,267.6609 L282.3061,273.5755 L273.1132,278.3897 L265.3115,285.3942 L255.701,289.551 L247.2943,295.603 L239.0344,301.8861 L229.9839,306.9245" fill="none" style="stroke:#333333;stroke-width:3.125;"/><polygon fill="#333333" points="224.7083,310.2757,224.7191,310.3479,226.7167,309.8315,228.7772,309.7382,230.8173,309.5071,232.7899,308.8229,234.8559,308.766,234.85,308.7396,233.6734,308.3649,232.5264,308.1228,231.4,307.9731,230.2026,307.5053,229.1047,307.483,229.2923,307.5249,229.1477,306.2852,229.5508,305.1676,230.0208,304.065,230.1019,302.8756,230.3876,301.7318,230.4073,301.745,229.2425,303.4345,228.1675,305.1837,227.0492,306.9041,226.0135,308.6795,224.7083,310.2757" style="stroke:#333333;stroke-width:3.125;"/><text fill="#2E2E2E" font-family="'Segoe Print'" font-size="12.5" lengthAdjust="spacing" textLength="30.9937" x="301.9688" y="274.5378">mark</text></g><!--link Mark to Marked--><g class="link" data-entity-1="ent0003" data-entity-2="ent0004" data-link-type="dependency" data-source-line="10" id="lnk5"><path d="M173.0208,363.0465 L173.2853,363.17 L168.1048,372.2164 L164.4748,381.9866 L160.34,391.5212 L154.5445,400.2804 L150.9499,410.0672 L146.1164,419.2755 L141.7759,428.714 L137.8639,438.3526" fill="none" style="stroke:#333333;stroke-width:3.125;"/><polygon fill="#333333" points="135.2188,444.0153,135.2666,444.0704,136.6729,442.5606,138.3599,441.3737,139.9555,440.0817,141.2505,438.4439,142.9615,437.2847,142.9523,437.2593,141.8033,437.5478,140.7007,437.9642,139.6303,438.4695,138.4488,438.6684,137.423,439.2964,137.6037,439.362,136.815,438.114,136.5538,437.0576,136.357,436.0245,135.7857,434.8554,135.4113,433.7579,135.435,433.7583,135.3617,435.8092,135.3963,437.862,135.3788,439.9139,135.4606,441.9676,135.2188,444.0153" style="stroke:#333333;stroke-width:3.125;"/><text fill="#2E2E2E" font-family="'Segoe Print'" font-size="12.5" lengthAdjust="spacing" textLength="116.1987" x="158.8542" y="408.2878">all legs have marks</text></g><!--link Mark to Missing--><g class="link" data-entity-1="ent0003" data-entity-2="ent0005" data-link-type="dependency" data-source-line="11" id="lnk6"><path d="M236.375,362.9528 L236.4252,363.0361 L238.6255,364.2052 L241.1204,365.8628 L243.5193,367.3613 L245.6028,368.3366 L248.1229,370.0361 L248.103,370.0061 L250.3593,371.4257 L252.7158,372.9965 L255.1419,374.6723 L257.328,375.986 L259.8503,377.807 L260.0029,378.0129 L261.9427,379.2517 L264.3281,381.0917 L266.7679,383.0051 L268.8913,384.4917 L271.1812,386.2028 L271.2016,386.2269 L273.2833,387.9832 L275.458,389.8492 L277.5878,391.6622 L279.8033,393.5762 L281.7396,395.1611 L281.9585,395.3816 L284.0954,397.5036 L286.0911,399.4835 L288.2935,401.6714 L290.5055,403.8692 L292.4107,405.7578 L292.1574,405.5403 L294.4841,408.099 L295.9768,409.9413 L298.1035,412.3282 L299.5773,414.1543 L301.5863,416.4401 L301.5608,416.4212 L303.4796,418.8267 L304.8032,420.791 L306.4781,423.0156 L308.1824,425.2621 L309.674,427.3509 L309.8351,427.4567 L311.154,429.6064 L312.7481,431.9368 L313.8969,433.9748 L315.71,436.449 L317.0814,438.6332" fill="none" style="stroke:#333333;stroke-width:3.125;"/><polygon fill="#333333" points="320.3958,443.932,320.4681,443.9422,319.9656,441.8802,319.8866,439.8783,319.6698,437.8568,318.9993,435.771,318.9567,433.7742,318.9304,433.7681,318.5478,434.8894,318.2978,436.0411,318.1399,437.2141,317.6645,438.314,317.6338,439.5163,317.677,439.7036,316.4362,439.0385,315.3215,438.9202,314.2222,438.8687,313.0334,438.429,311.8917,438.1934,311.9049,438.2131,313.5863,439.3319,315.328,440.5402,317.0406,441.7054,318.8088,442.9528,320.3958,443.932" style="stroke:#333333;stroke-width:3.125;"/><text fill="#2E2E2E" font-family="'Segoe Print'" font-size="12.5" lengthAdjust="spacing" textLength="143.8293" x="298.1771" y="408.2878">chain or leg unavailable</text></g><!--link Marked to Open--><g class="link" data-entity-1="ent0004" data-entity-2="ent0002" data-link-type="dependency" data-source-line="12" id="lnk7"><path d="M95.4792,443.807 L95.55,443.8737 L92.7941,440.9734 L90.4534,438.4642 L87.9775,435.8277 L85.0569,432.7723 L82.7519,430.2967 L82.7243,430.2736 L80.0189,427.0872 L77.4527,424.0172 L74.9831,421.0282 L72.1804,417.7602 L69.8442,414.883 L70.0528,415.0319 L67.2027,411.3461 L64.9617,408.0951 L62.7949,404.8971 L60.1958,401.3905 L57.8241,398.0462 L57.8516,398.0617 L55.7982,394.483 L53.87,390.9751 L51.8814,387.433 L50.0081,383.9561 L47.7591,380.2666 L48.0489,380.3785 L46.6441,376.7315 L45.0523,373.0123 L43.7341,369.3987 L42.4288,365.7901 L40.7171,362.0246 L40.3875,361.9713 L40.4369,358.4301 L39.4011,354.7131 L39.1903,351.1297 L38.1298,347.4088 L37.7658,343.8006 L37.7343,343.7967 L38.5479,340.2979 L38.6263,336.7075 L39.1384,333.1712 L39.6871,329.6394 L39.9729,326.0749 L40.145,326.1616 L41.658,322.7247 L43.465,319.4359 L44.7962,315.9074 L46.8372,312.7364 L48.4063,309.3278 L48.6067,309.4835 L49.9081,307.7296 L51.3091,306.0531 L52.2477,304.0174 L53.5252,302.245 L55.1031,300.7058 L54.8851,300.5181 L56.4242,299.1298 L57.7176,297.5299 L59.3674,296.2369 L60.4088,294.42 L61.8119,292.9145 L61.7005,292.8012 L64.5829,290.3369 L66.9891,287.3886 L69.734,284.7845 L72.8101,282.5171 L75.2962,279.65 L75.4191,279.81 L78.2283,277.8272 L80.6553,275.3468 L83.561,273.4896 L86.3624,271.4967 L88.9208,269.1873 L88.8112,268.9981 L91.6638,267.5473 L94.4805,266.0346 L97.3677,264.6436 L99.9807,262.7792 L102.7469,261.1792 L102.8296,261.3767 L105.4657,259.7626 L108.2614,258.5297 L111.2905,257.8538 L113.89,256.1524 L116.836,255.2784 L116.9011,255.5049 L119.7452,254.5422 L122.5672,253.503 L125.4389,252.6366 L128.4255,252.1701 L131.2496,251.1378 L131.2245,251.0015 L134.2591,250.8617 L137.1229,249.7951 L140.181,249.7823 L143.1297,249.1762 L146.0489,248.4102 L146.0612,248.5229 L149.1006,248.0995 L152.184,248.0799 L155.2277,247.6955 L158.2547,247.1586 L161.2956,246.7484 L161.303,246.8723 L164.443,246.4995 L167.6175,246.7022 L170.753,246.254 L173.9046,246.0736 L177.0509,245.8052 L177.041,245.5237 L180.3094,245.5034 L183.5896,245.8221 L186.8531,245.661 L190.1105,245.3279 L193.3762,245.2335 L193.3714,245.0844 L196.7643,245.0227 L200.1487,244.697 L203.5566,245.0969 L206.9528,245.1377 L210.3331,244.686 L210.3451,244.9294 L213.8789,244.8332 L217.3899,244.2746 L220.925,244.2041 L224.4441,243.8104 L227.9829,243.8156 L227.9939,243.9466 L231.6733,243.6213 L235.3659,243.4542 L239.0165,242.7853 L242.701,242.5212 L246.387,242.2751 L246.4141,242.4786 L250.2657,242.0239 L254.0437,241.0168 L257.9071,240.6514 L261.7721,240.2974 L265.6069,239.7173 L265.5527,239.4397 L269.6577,239.0934 L273.6686,238.2656 L277.6562,237.3182 L281.6972,236.6441 L285.704,235.795 L285.7852,236.1225 L287.7484,235.1382 L289.8978,234.9041 L291.9738,234.3746 L294.0342,233.782 L296.1006,233.2137 L296.1186,233.2765 L298.2429,232.6537 L300.2765,231.7149 L302.4328,231.2038 L304.5529,230.5663 L306.7396,230.1611 L306.7482,230.1894 L309.1194,229.4743 L311.4973,228.781 L313.8037,227.8548 L316.2019,227.2278 L318.5789,226.5319" fill="none" style="stroke:#333333;stroke-width:3.125;"/><polygon fill="#333333" points="324.5521,224.6924,324.5608,224.7648,322.4977,224.305,320.4856,224.2699,318.457,224.0964,316.3737,223.4681,314.366,223.4695,314.3534,223.4457,315.3384,223.8898,316.3871,224.4541,317.48,225.1021,318.4205,225.4619,319.5744,226.2253,319.7444,226.3152,318.8298,227.1646,318.4114,228.2766,318.0535,229.4205,317.3435,230.3781,316.8187,231.4337,316.8342,231.4516,318.358,230.0771,319.9528,228.7839,321.5133,227.4515,323.139,226.1939,324.5521,224.6924" style="stroke:#333333;stroke-width:3.125;"/><text fill="#2E2E2E" font-family="'Segoe Print'" font-size="12.5" lengthAdjust="spacing" textLength="63.324" x="49.4479" y="341.4128">keep open</text></g><!--link Missing to Open--><g class="link" data-entity-1="ent0005" data-entity-2="ent0002" data-link-type="dependency" data-source-line="13" id="lnk8"><path d="M427.5833,447.0986 L427.6183,447.1894 L430.8042,445.6522 L434.1951,444.6473 L437.5193,443.4691 L440.6239,441.7208 L444.0324,440.7616 L444.0178,440.7287 L447.2598,439.109 L450.5755,437.6549 L453.9425,436.316 L457.1328,434.5802 L460.5706,433.4004 L460.6886,433.628 L463.6996,431.4506 L467.0549,429.9377 L470.4523,428.5059 L473.6052,426.6023 L476.8867,424.9469 L476.9031,424.9739 L480.0355,423.0115 L483.2427,421.1719 L486.4138,419.2731 L489.6538,417.4874 L492.6693,415.333 L492.8518,415.5844 L495.8416,413.419 L498.7137,411.0914 L501.7581,409.0013 L504.8105,406.9222 L507.6071,404.4906 L507.3865,404.24 L510.5711,402.2985 L513.0292,399.532 L516.0396,397.3926 L518.4811,394.6074 L521.389,392.3516 L521.3656,392.3302 L524.1056,389.8822 L526.2982,386.9348 L528.8138,384.2821 L531.3565,381.6542 L533.7036,378.8478 L533.861,378.9589 L535.8093,375.8594 L538.0266,372.9498 L539.8086,369.733 L542.24,366.9744 L544.2396,363.9111 L544.4667,364.0244 L545.4325,361.9804 L546.511,359.9926 L547.0656,357.7435 L548.0042,355.6859 L549.2832,353.7981 L549.0065,353.7192 L549.824,351.8003 L550.3298,349.7925 L551.2878,347.9136 L551.4737,345.8146 L552.1186,343.8465 L551.9598,343.8441 L552.1666,339.9795 L551.6946,336.1047 L551.7053,332.2371 L552.1884,328.3766 L551.8304,324.5035 L552.0186,324.5761 L550.7228,320.932 L548.8417,317.062 L547.6937,313.4749 L546.386,309.8261 L544.7061,306.0338 L544.5223,305.9153 L543.5269,304.2378 L542.4713,302.5214 L541.534,300.8812 L540.1368,298.9447 L538.9965,297.1738 L539.1632,297.3081 L537.413,295.2959 L535.9846,293.543 L535.0263,292.1691 L533.2025,290.0975 L532.077,288.5888 L532.2469,288.7521 L530.5534,286.9969 L528.8023,285.1866 L527.1811,283.5009 L525.8598,282.1033 L524.114,280.298 L524.0212,280.1951 L522.5296,278.9058 L520.4066,276.9169 L519.0015,275.7235 L517.1922,274.0821 L515.274,272.3201 L515.3449,272.4087 L513.3775,270.808 L511.6639,269.5244 L509.7211,267.9543 L507.6824,266.2646 L505.7233,264.6742 L505.796,264.7749 L503.6689,263.1663 L501.8795,262.0251 L499.7083,260.3553 L497.6941,258.903 L495.6283,257.3792 L495.4729,257.1443 L493.4302,255.8377 L491.5746,254.8141 L489.4543,253.3901 L487.239,251.8225 L485.1554,250.454 L485.0775,250.3268 L482.9656,249.0603 L480.7158,247.5685 L478.8449,246.696 L476.7865,245.517 L474.4709,243.9176 L474.5918,244.1292 L472.4846,242.9712 L470.1477,241.4112 L468.0532,240.2754 L465.7983,238.8588 L463.7414,237.7889 L463.8037,237.9047 L461.6738,236.7491 L459.6192,235.7333 L457.3261,234.274 L455.2253,233.1724 L453.1331,232.0868" fill="none" style="stroke:#333333;stroke-width:3.125;"/><polygon fill="#333333" points="447.5938,229.1924,447.6509,229.2378,448.757,230.7098,450.1981,232.448,451.5301,234.0994,452.5033,235.466,453.9732,237.227,453.9474,237.2189,453.4792,236.0582,453.1408,234.9381,452.8926,233.8464,452.3335,232.6571,452.2099,231.6044,452.2674,231.7879,453.2689,231.043,454.4384,230.8336,455.6283,230.6896,456.699,230.1654,457.8324,229.8412,457.8339,229.8648,455.784,229.7003,453.7409,229.6435,451.6945,229.5348,449.6543,229.5251,447.5938,229.1924" style="stroke:#333333;stroke-width:3.125;"/><text fill="#2E2E2E" font-family="'Segoe Print'" font-size="12.5" lengthAdjust="spacing" textLength="63.324" x="553.5" y="341.4128">keep open</text></g><!--link Open to Closed--><g class="link" data-entity-1="ent0002" data-entity-2="ent0006" data-link-type="dependency" data-source-line="14" id="lnk9"><path d="M459.8958,216.734 L459.9162,216.8292 L463.5587,217.3379 L467.3204,218.4045 L471.0433,219.2894 L474.6385,219.5769 L478.4104,220.6913 L478.4026,220.6562 L482.3267,221.3884 L486.2905,222.2976 L490.2821,223.3298 L494.1783,223.9381 L498.208,225.1401 L498.2672,225.3895 L502.2946,225.8416 L506.4948,227.0219 L510.716,228.291 L514.8146,229.0432 L518.9777,230.0672 L518.9855,230.0979 L523.2604,231.1313 L527.5704,232.3042 L531.8634,233.4098 L536.1888,234.6439 L540.4089,235.4593 L540.4894,235.7594 L544.8467,236.9318 L549.1521,237.9107 L553.5335,239.1728 L557.9185,240.4483 L562.1906,241.303 L562.0982,240.9822 L566.6418,242.8613 L570.8812,243.684 L575.3518,245.3098 L579.5843,246.1085 L584.012,247.5851 L584.0026,247.5548 L588.4242,249.2544 L592.6255,250.2464 L596.9568,251.656 L601.299,253.1005 L605.5625,254.2923 L605.6232,254.4752 L607.6773,254.9923 L609.835,255.822 L611.825,256.146 L614.0652,257.2243 L616.139,257.8011 L616.2223,258.0408 L618.285,258.7175 L620.3891,259.5132 L622.301,259.7558 L624.3537,260.4039 L626.5313,261.4111 L626.4316,261.1413 L629.3306,262.4226 L632.1173,263.3998 L635.0669,264.8181 L637.7384,265.4833 L640.5752,266.5962 L640.5169,266.4485 L643.371,267.7831 L645.9759,268.4863 L648.758,269.6386 L651.7136,271.2302 L654.3603,272.0394 L654.4382,272.2254 L657.1913,273.4831 L659.7022,274.162 L662.5165,275.5658 L665.2647,276.8116 L667.8588,277.6895 L667.7707,277.4894 L670.4777,278.8102 L673.1559,280.0654 L675.8909,281.4494 L678.4053,282.3327 L681.0429,283.4957 L681.1324,283.6902 L683.504,284.445 L686.0485,285.5753 L688.8454,287.2542 L691.1775,287.9231 L693.8846,289.4069 L693.9863,289.6194 L696.4202,290.6862 L698.8198,291.681 L701.2969,292.8382 L703.9536,294.3705 L706.3563,295.372 L706.2949,295.2477 L708.8924,296.8112 L711.0724,297.5298 L713.7272,299.209 L716.1146,300.3474 L718.43,301.34 L718.4814,301.4411 L720.7695,302.5435 L723.2416,304.0079 L725.5474,305.1452 L727.7838,306.1458 L730.0779,307.26" fill="none" style="stroke:#333333;stroke-width:3.125;"/><polygon fill="#333333" points="735.6354,310.1195,735.6923,310.1652,734.2373,308.4305,733.1157,306.9638,731.8856,305.4099,730.2985,303.5688,729.2055,302.1252,729.1798,302.117,729.4242,303.2023,729.7982,304.3291,730.2622,305.4848,730.4158,306.541,731.0042,307.7366,731.0628,307.9196,729.8151,307.8879,728.7387,308.3906,727.6832,308.9586,726.506,309.1471,725.3928,309.5352,725.3942,309.5589,727.4407,309.641,729.4934,309.8308,731.5431,309.9687,733.5985,310.2057,735.6354,310.1195" style="stroke:#333333;stroke-width:3.125;"/><text fill="#2E2E2E" font-family="'Segoe Print'" font-size="12.5" lengthAdjust="spacing" textLength="206.2683" x="667.2396" y="274.5378">close with ID and settlement price</text></g><!--link Closed to Closed--><g class="link" data-entity-1="ent0006" data-entity-2="ent0006" data-link-type="dependency" data-source-line="15" id="lnk10"><path d="M865.4271,324.2549 L865.4356,324.3518 L868.2768,324.3157 L871.168,324.8479 L874.0429,325.195 L876.8643,324.9336 L879.7598,325.5145 L879.7521,325.4793 L882.0024,325.8178 L884.2911,326.3335 L886.6066,326.9724 L888.8298,327.1867 L891.1823,327.9958 L891.347,328.1922 L893.0521,329.4969 L895.2381,331.3751 L897.4826,333.3232 L899.3859,334.8643 L901.4688,336.6195 L901.4929,336.6398 L900.0246,338.3093 L898.6663,340.0714 L897.2549,341.7889 L895.9447,343.5916 L894.3045,345.1162 L894.382,345.417 L892.5278,345.8985 L890.6236,346.1859 L888.7925,346.7573 L886.9649,347.3421 L885.0286,347.505 L884.9983,347.1725 L882.3857,348.0613 L879.6733,347.8552 L877.0368,348.4815 L874.3222,348.2506 L871.6716,348.7223" fill="none" style="stroke:#333333;stroke-width:3.125;"/><polygon fill="#333333" points="865.4271,348.984,865.4539,349.0519,867.2825,349.6043,869.2683,350.5546,871.2029,351.3753,872.9691,351.77,874.9684,352.7544,874.9501,352.7345,874.0006,351.8477,873.1432,351.061,872.3498,350.3439,871.3359,349.3869,870.6308,348.7659,870.7724,348.896,871.2675,347.7503,872.1757,346.9844,873.1343,346.2649,873.7997,345.2757,874.6193,344.4284,874.6299,344.4496,872.776,345.3296,870.97,346.3062,869.1409,347.2362,867.3558,348.2551,865.4271,348.984" style="stroke:#333333;stroke-width:3.125;"/><text fill="#2E2E2E" font-family="'Segoe Print'" font-size="12.5" lengthAdjust="spacing" textLength="126.1841" x="907.7188" y="341.4128">repeat close rejected</text></g><g class="caption" data-source-line="31"><text fill="#2E2E2E" font-family="'Segoe Print'" font-size="14.5833" lengthAdjust="spacing" textLength="674.4863" x="192.2083" y="537.8003">Sources: shell cli/forward.py and engine backtest/forward.py. Paper results are not executions.</text></g></g></svg>